# xmcd
#
# Track frame offsets:
#	150
#	31978
#	49683
#	66610
#	103321
#	133704
#	165623
#	189783
#
# Disc length: 2940 seconds
#
# Revision: 1
# Processed by: cddbd v1.5.2PL0 Copyright (c) Steve Scherf et al.
# Submitted via: audiograbber 1.83.01
#
DISCID=6e0b7a08
DTITLE=Grateful Dead - 71-11-11 Atlanta Municipal Auditorium, Atlanta GA
DYEAR=1900
DGENRE=
TTITLE0=Bertha
TTITLE1="Pigs on the stage"
TTITLE2=Me and My Uncle
TTITLE3=Sugaree
TTITLE4=Playing In The Band
TTITLE5=Tennessee Jed
TTITLE6=Jack Straw
TTITLE7=Casey Jones
EXTD=
EXTT0=
EXTT1=
EXTT2=
EXTT3=
EXTT4=
EXTT5=
EXTT6=
EXTT7=
PLAYORDER=
